<?xml version="1.0" encoding="utf-8"?>
<!-- Generator: Adobe Illustrator 22.1.0, SVG Export Plug-In . SVG Version: 6.00 Build 0)  -->
<svg version="1.1" id="Layer_1" xmlns="http://www.w3.org/2000/svg" xmlns:xlink="http://www.w3.org/1999/xlink" x="0px" y="0px"
	 viewBox="0 0 612 792" style="enable-background:new 0 0 612 792;" xml:space="preserve">
<path d="M452.4,601.8c-2.1-3.7-4-7.3-6.2-11c-8.5-14.4-17.1-28.8-25.6-43.2c-8.8-14.9-17.6-29.8-26.4-44.7
	c-7.2-12.2-14.3-24.3-21.5-36.5c-5.4-9.1-10.7-18.1-16.1-27.2c-7.5-12.8-15.1-25.5-22.8-38.7c1.2-0.2,2-0.5,2.9-0.5
	c78.7,0,157.4,0,236,0c2.1,0,2.8,0.5,2.8,2.7c-0.1,11.3-0.1,22.6,0,33.9c0,2.1-0.7,2.7-2.8,2.7c-47.1-0.1-94.3-0.1-141.4-0.1
	c-5.4,0-10.1,1.9-13.9,5.7c-3,2.9-4.1,9.7-2,13.8c2.5,4.9,5.3,9.6,8,14.3c5.8,10.1,11.8,20.1,17.6,30.2
	c7.7,13.2,15.4,26.5,23.1,39.7c8.2,14.1,16.4,28.3,24.6,42.4c3.2,5.5,6.4,11,9.6,16.4C483,601.8,467.7,601.8,452.4,601.8z"/>
<path d="M131.3,601.8c4.8-8.3,9.5-16.7,14.3-25c6.3-10.9,12.6-21.8,18.9-32.8c5.7-10,11.5-19.9,17.2-29.9
	c6.4-11.1,12.8-22.3,19.2-33.4c3.9-6.9,7.9-13.7,11.8-20.6c1.6-2.9,2.6-5.8,2.4-9.3c-0.2-3.5-2.1-5.5-4.6-7.3
	c-3.7-2.6-7.9-3.2-12.3-3.2c-46.5,0-93,0-139.5,0c-4.7,0-4.7,0-4.7-4.6c0-10.8,0.1-21.7-0.1-32.5c0-2.3,0.9-2.8,3-2.8
	c76.9,0,153.8,0,230.7,0c1,0,2.1,0,3.1,0c2-0.1,2.2,0.8,1.3,2.3c-4.2,7.2-8.4,14.4-12.5,21.6c-5.8,10.2-11.6,20.4-17.5,30.6
	c-5.3,9.1-10.6,18.2-15.8,27.4c-6,10.4-11.8,20.8-17.8,31.2c-5.7,10-11.6,19.9-17.3,29.8c-5.4,9.3-10.7,18.8-16.1,28.1
	c-5.4,9.3-10.8,18.7-16.2,28c-0.4,0.8-0.8,1.5-1.2,2.3C162.2,601.8,146.7,601.8,131.3,601.8z"/>
<path d="M219.7,601.8c3.2-5.6,6.4-11.3,9.7-16.9c8.9-15.2,17.9-30.3,26.9-45.5c6.5-11.1,13.1-22.1,19.6-33.2
	c9.8-16.6,19.5-33.2,29.3-49.9c2.5-4.2,4.9-8.5,7.4-12.7c0.4-0.6,1.1-1.2,1.7-1.3c0.3-0.1,0.9,0.9,1.3,1.4
	c6.6,10.8,13.2,21.7,19.7,32.6c7,11.5,13.9,23.1,20.9,34.6c5.7,9.4,11.4,18.7,17.1,28c6.4,10.6,12.8,21.3,19.3,32
	c5.7,9.4,11.4,18.7,17.1,28.1c0.6,0.9,1.2,1.9,1.8,2.8c-15.8,0-31.5,0-47.3,0c-0.1-0.3-0.2-0.6-0.3-0.9
	c-7.8-13.1-15.7-26.3-23.5-39.4c-4.9-8.2-9.8-16.3-14.7-24.4c-5-8.3-17.6-6.7-21.4-0.1c-3.2,5.7-6.6,11.2-9.9,16.8
	c-9.5,16-19.1,32-28.6,48C250.3,601.8,235,601.8,219.7,601.8z"/>
<path d="M315.4,288.5c-31.2,1-55.2-25.8-56.2-53.8c-1.2-32.9,26.1-59.1,56.9-58.7c29.1,0.4,56.8,25.3,55.2,59.4
	C370,263.1,346.5,289.3,315.4,288.5z"/>
<path d="M334.1,333.7c-0.1,1.1-0.2,1.8-0.2,2.5c0,14.4,0,28.8,0.1,43.2c0,2-0.5,2.8-2.7,2.8c-8.9-0.1-17.8-0.1-26.8,0
	c-2.2,0-3-0.6-3-2.9c0.1-22.8,0.1-45.6,0.1-68.3c0-3.3,0-3.3,3.3-3.3c12.3,0,24.5,0,36.8,0c1.8,0,3.1,0.5,4.3,1.9
	c10.7,11.9,21.5,23.8,32.2,35.7c2.7,3,5.3,6.1,8.1,9.1c0.5,0.6,1.3,0.9,2,1.3c0.2-0.7,0.5-1.4,0.5-2.1c0-14.2,0-28.3,0-42.5
	c0-3,0.2-3.3,3.3-3.3c8.6,0,17.2,0,25.8,0c3.4,0,3.5,0.1,3.5,3.5c0,22.6,0,45.2,0,67.8c0,3.1-0.2,3.2-3.2,3.2
	c-13.1,0-26.1,0-39.2-0.1c-1.1,0-2.5-0.6-3.2-1.4c-5-5.5-9.9-11.2-14.7-16.8c-5.9-6.8-11.8-13.5-17.6-20.3c-2.5-2.9-4.9-5.8-7.4-8.7
	C335.6,334.4,335,334.2,334.1,333.7z"/>
<path d="M112,357.3c-0.8,5.9,2.5,8.1,6,9.1c8.3,2.2,16.6,2.6,25,0.3c2.4-0.7,5.3-1.7,5.5-4.6c0.1-2.5-2.4-3.7-4.6-4.3
	c-5-1.4-10.1-2.7-15.3-3.6c-11.1-1.9-22.3-3.7-33-7.2c-5.7-1.9-10.8-4.9-13.6-10.5c-3.8-7.7-1.3-16.5,5.9-21.4
	c6.6-4.5,14.1-6.5,21.9-7.3c7.8-0.8,15.7-1.6,23.5-1.5c9.6,0.1,19.2,0.4,28.6,3.2c6.1,1.8,12.1,3.9,15.4,9.9
	c1.4,2.5,1.9,5.6,2.7,8.5c0.3,1.3-0.5,2.1-1.9,2.1c-9.2,0-18.3,0-27.5-0.1c-0.8,0-2.1-0.7-2.2-1.3c-1-4.7-5-5.8-8.5-6.1
	c-6.1-0.6-12.4-0.2-18.6-0.2c-0.7,0-1.6,0.4-2.2,0.9c-1.3,1.1-2.4,2.3-3.6,3.5c1.3,1.2,2.5,3.2,4,3.6c6.1,1.7,12.3,3.1,18.5,4.4
	c9.2,2,18.6,3.5,27.7,5.8c5.5,1.4,10.7,4,14.3,8.9c6,8.1,4.1,18.7-4.2,24.5c-7.4,5.1-15.9,7.3-24.6,8.2c-8.7,1-17.6,1.4-26.4,1.5
	c-8.9,0.1-17.8-0.8-26.4-3c-5.7-1.4-11-3.8-15-8.3c-3.4-3.9-4.7-8.6-4.7-13.7c0-1.7,1.2-1.6,2.4-1.6c7.4,0,14.8,0,22.2,0
	c2,0,4,0,6,0C110.3,357,111.1,357.2,112,357.3z"/>
<path d="M422.7,381.8c3.2-4.7,6.1-9,9-13.2c5.5-7.9,10.9-15.8,16.4-23.7c7.7-11.1,15.7-22.2,23.2-33.5c2.1-3.2,4.3-4,7.8-3.9
	c9.9,0.2,19.9,0.1,29.9,0c2.1,0,3.4,0.7,4.5,2.4c10.8,16.5,21.7,33,32.6,49.5c4.5,6.8,9,13.5,13.4,20.3c0.3,0.5,0.6,1.3,0.5,1.9
	c0,0.3-1.1,0.5-1.7,0.5c-11,0-22,0-33,0c-1.5,0-2.5-0.4-3.2-1.9c-1.7-3.4-3.5-6.8-5.6-10c-0.6-0.9-2-1.7-3-1.7
	c-15.6-0.1-31.2-0.1-46.8,0c-1,0-2.4,0.9-3,1.8c-2.1,3.2-3.8,6.6-6,9.7c-0.6,1-2,2-3.1,2c-9.8,0.2-19.6,0.1-29.4,0.1
	C424.6,382.1,424,382,422.7,381.8z M491,326c-5.3,8.4-10.2,16.3-15.1,24.3c-1,1.6,0,1.9,1.4,1.9c8.9,0,17.8,0,26.7-0.1
	c1.8,0,2.2-0.8,1.2-2.4c-3.2-5.4-6.4-10.8-9.6-16.1C494.1,331.2,492.7,328.8,491,326z"/>
<path d="M242.1,382.1c-14.1,0-28.2,0-42.3,0c-3.1,0-3.2-0.1-3.2-3c0-22.9,0-45.9-0.1-68.8c0-2.1,0.8-2.8,2.8-2.8c28,0,56.1,0,84.1,0
	c1.8,0,2.6,0.6,2.5,2.5c-0.1,3.7-0.1,7.5,0,11.2c0.1,2-0.8,2.6-2.7,2.6c-16.3-0.1-32.7,0-49,0c-3.8,0-3.9,0.2-3.8,3.9
	c0,1.7,0.1,3.3,0,5c-0.1,1.5,0.6,2.2,2.1,2.3c1.3,0,2.5,0,3.8,0c14.3,0,28.7,0,43,0c1.8,0,2.6,0.6,2.6,2.5c0,3.9-0.1,7.8,0,11.7
	c0,2-0.8,2.4-2.6,2.4c-15.1-0.1-30.1,0-45.2,0c-3.5,0-3.7,0.1-3.7,3.6c0,2.8,0,5.6-0.1,8.4c-0.1,1.5,0.6,2.1,1.9,2.1
	c1.4,0.1,2.7,0,4.1,0c16.2,0,32.3,0,48.5,0c2.1,0,2.9,0.7,2.8,2.7c-0.1,3.7-0.1,7.5,0,11.2c0.1,2-0.6,2.6-2.6,2.6
	C270.8,382.1,256.5,382.1,242.1,382.1C242.1,382.1,242.1,382.1,242.1,382.1z"/>
</svg>
